<?xml version="1.0" standalone="no"?>
<!DOCTYPE svg PUBLIC "-//W3C//DTD SVG 1.1//EN" "http://www.w3.org/Graphics/SVG/1.1/DTD/svg11.dtd">
<svg xmlns="http://www.w3.org/2000/svg" xmlns:xlink="http://www.w3.org/1999/xlink" version="1.1" id="body_1" width="2127" height="1191">

<defs>
    <clipPath  id="1">

    <path id=""  clip-rule="evenodd" transform="matrix(1 0 0 1 0 0)"  d="M0 893L0 -0.8209839L0 -0.8209839L1595.68 -0.8209839L1595.68 -0.8209839L1595.68 893L1595.68 893L0 893z" />    </clipPath>
    <clipPath  id="2">

    <path id=""  clip-rule="evenodd" transform="matrix(1 0 0 1 0 0)"  d="M0 -0.8209839L1595.681 -0.8209839L1595.681 -0.8209839L1595.681 893L1595.681 893L0 893z" />    </clipPath>
</defs>

<g transform="matrix(1.3333 0 0 1.3333 0 0)">
	<g clip-path="url(#1)" >
		<g clip-path="url(#2)" >
    <path id=""  transform="matrix(1 0 0 -1 0 893)"  d="M1154.8055 450.77808C 1154.8235 451.24008 1154.8406 451.70306 1154.8585 452.16507C 1154.2755 452.43808 1153.7195 452.84207 1153.1075 452.96408C 1129.5336 457.66208 1106.0525 457.0251 1082.7445 451.32907C 1081.2805 450.97208 1079.4446 448.46408 1079.3285 446.84607C 1078.3876 433.7201 1077.6855 420.57108 1077.2896 407.4181C 1077.2385 405.7171 1078.9905 402.8891 1080.5126 402.37506C 1103.7015 394.54407 1127.4346 391.08008 1151.8666 394.6681C 1153.3826 394.89108 1154.7275 396.27808 1156.1515 397.12408C 1154.6595 397.76807 1153.1946 398.89108 1151.6705 398.97607C 1142.1965 399.5081 1132.6416 399.24207 1123.2495 400.37207C 1116.4146 401.19507 1109.6936 403.47406 1103.1305 405.71606C 1101.1436 406.39508 1099.8525 409.11707 1098.2435 410.90308C 1100.0945 412.10608 1101.7936 413.7451 1103.8186 414.44507C 1135.1305 425.27707 1165.5596 420.56607 1195.5696 409.0171C 1197.1526 408.40707 1198.7555 407.8491 1200.3495 407.26807C 1200.6576 407.7241 1200.9656 408.18008 1201.2736 408.63608C 1200.1665 409.72906 1199.2335 411.1471 1197.9175 411.84607C 1194.9845 413.40607 1191.9115 414.73907 1188.8075 415.9361C 1158.7195 427.52606 1127.8816 427.2251 1096.7316 421.60208C 1088.5746 420.13007 1087.3535 420.94507 1086.4685 429.20807C 1086.2745 431.0121 1086.4585 432.86008 1086.5155 434.6861C 1086.6755 439.79007 1088.9365 442.66708 1094.2266 444.08908C 1111.7385 448.7971 1129.4806 451.14508 1147.5975 450.7841C 1149.9995 450.73608 1152.4026 450.77808 1154.8055 450.77808M1227.8816 592.68207C 1228.2195 593.0361 1228.5575 593.39105 1228.8955 593.74506C 1227.9835 594.88806 1227.2416 596.25806 1226.1085 597.1031C 1225.0916 597.8611 1223.6586 598.0921 1222.3835 598.47107C 1179.8385 611.1141 1136.2356 613.2151 1092.2626 611.3611C 1090.3396 611.27905 1088.1836 609.9861 1086.6476 608.6621C 1080.8485 603.6631 1075.3275 598.3421 1069.5575 593.30707C 1067.3876 591.4131 1066.7825 589.69507 1067.7635 586.8191C 1078.4225 555.5431 1081.3175 523.4751 1077.3885 490.70908C 1077.2156 489.26907 1078.2776 486.6121 1079.3036 486.30206C 1082.1285 485.44708 1082.9105 487.6591 1082.9795 490.13208C 1083.1416 495.95807 1083.5176 501.78308 1083.5035 507.60907C 1083.4425 534.86505 1081.9225 561.92206 1071.2946 587.5581C 1070.1505 590.3171 1071.2175 591.5251 1073.5035 592.5821C 1079.2466 595.2381 1084.9115 598.06805 1090.6946 600.6341C 1093.5446 601.89905 1096.5605 603.5461 1099.5446 603.6421C 1141.9425 605.00806 1184.1526 603.8761 1225.5135 592.9231C 1226.2705 592.7231 1227.0906 592.7571 1227.8816 592.68207M1108.3895 490.67407C 1112.8535 490.13208 1115.3995 491.0431 1115.2445 495.44308C 1114.5796 514.3971 1114.0916 533.3611 1113.1095 552.2981C 1112.8525 557.2561 1111.0555 562.13306 1109.9656 567.04706C 1109.3645 566.96906 1108.7635 566.8921 1108.1626 566.8141C 1112.6405 541.57605 1112.0916 516.35205 1108.3895 490.67407M1178.2125 552.12506C 1177.8235 552.2041 1177.4346 552.2821 1177.0455 552.3611C 1176.3525 549.70605 1175.5405 547.0741 1174.9866 544.3901C 1171.6205 528.0951 1168.3156 511.78708 1164.9835 495.48508C 1164.5326 493.27808 1163.1445 490.82208 1167.0725 490.2591C 1170.7146 489.73608 1171.5546 491.5341 1171.8916 494.75708C 1173.4685 509.81607 1175.2736 524.85205 1176.9716 539.8981C 1177.4305 543.96906 1177.8015 548.0491 1178.2125 552.12506M1323.7555 413.49307C 1316.7925 427.8791 1307.6855 435.3961 1298.5295 434.31506C 1303.3466 430.39008 1308.0396 426.56506 1312.7325 422.74008C 1312.2715 421.9831 1311.8115 421.2251 1311.3516 420.46808C 1305.9806 422.8231 1300.6106 425.17908 1295.0115 427.6341C 1299.0326 419.17706 1313.3835 412.14307 1323.7555 413.49307M1208.0396 452.81808C 1216.8835 451.2591 1232.8716 462.76007 1237.6605 473.8191C 1225.1705 470.53308 1212.9315 468.13608 1202.7535 460.5251C 1202.9005 460.1071 1203.0465 459.68808 1203.1935 459.26907C 1209.7335 461.30206 1216.2726 463.33408 1222.8125 465.3661L1222.8125 465.3661L1223.6385 463.5351C 1218.6075 460.07907 1213.5765 456.62207 1208.0396 452.81808M1195.0305 466.50006C 1195.3915 465.94107 1195.7535 465.38107 1196.1145 464.82208C 1191.5896 460.61807 1187.0646 456.41507 1182.5396 452.2121L1182.5396 452.2121L1183.6455 451.12506C 1196.0586 455.1201 1202.7795 465.0041 1208.3525 476.2121C 1196.6836 471.6631 1184.6345 467.8701 1176.3196 457.4831zM1269.9425 440.58908C 1275.9515 433.77606 1281.4835 427.50208 1287.0166 421.22906L1287.0166 421.22906L1285.3086 419.41208C 1278.7936 424.48407 1272.2786 429.5561 1265.7635 434.62708C 1272.0035 424.25708 1281.5856 418.65408 1292.6095 414.07108C 1289.9625 427.8791 1281.1825 438.23108 1269.9425 440.58908M1253.8895 448.14108C 1261.9866 444.11008 1279.6765 448.73608 1285.2886 455.50308C 1275.3916 458.9781 1258.7166 457.89807 1255.4625 453.56308C 1259.2096 453.31808 1262.9565 453.07108 1266.7046 452.82507C 1266.7306 452.2201 1266.7566 451.61407 1266.7826 451.0091C 1262.8735 450.1391 1258.9625 449.27008 1253.8895 448.14108M1142.1075 546.80505C 1142.4825 547.40607 1142.2125 547.16705 1142.1855 546.9021C 1140.3525 529.40405 1138.4985 511.9091 1136.8495 494.39508C 1136.7695 493.54608 1138.4955 492.52808 1139.3805 491.58807C 1140.2896 492.6681 1141.9806 493.7411 1141.9916 494.83008C 1142.1565 512.4341 1142.1075 530.03906 1142.1075 546.80505M1205.7975 444.8831C 1208.9885 436.78708 1227.9775 430.45407 1237.0116 434.2331C 1231.3136 440.18707 1226.1956 446.7371 1216.8196 446.66507C 1219.6106 444.21408 1222.4015 441.76306 1225.1925 439.3111C 1224.8206 438.73407 1224.4496 438.1551 1224.0775 437.57806C 1218.0916 439.9701 1212.1056 442.36108 1205.7975 444.8831M1245.4666 460.05008C 1245.7056 459.43307 1245.9435 458.81708 1246.1825 458.1991C 1241.2655 455.68808 1236.3485 453.17508 1230.5565 450.21707C 1239.0005 448.7321 1257.5386 458.72906 1260.4706 465.83008C 1249.5265 464.20407 1238.6786 463.49408 1229.3755 456.66107C 1234.7395 457.79108 1240.1025 458.92007 1245.4666 460.05008M1239.6125 446.36407C 1244.8745 442.5991 1249.7836 439.0871 1254.6915 435.5741C 1254.2996 434.9361 1253.9065 434.2981 1253.5145 433.6591C 1247.5665 436.7201 1241.6185 439.7801 1234.9916 443.19006C 1238.6805 435.47208 1253.3766 428.25006 1263.0436 428.69608C 1260.6586 438.0741 1248.9155 447.19608 1239.6125 446.36407M1180.9355 444.2541C 1185.9475 435.77307 1201.9656 429.78607 1210.2106 432.70908C 1203.9015 438.10107 1199.5565 445.77908 1189.6915 447.95508C 1191.6235 444.81708 1193.0145 442.55707 1194.4055 440.2981C 1194.0815 439.84808 1193.7576 439.39807 1193.4336 438.94708C 1189.6166 440.5691 1185.7996 442.1891 1180.9355 444.2541M1281.1736 446.46606C 1287.3606 446.87808 1293.3335 447.27606 1299.3065 447.67407C 1299.4446 446.9261 1299.5815 446.17807 1299.7206 445.43008C 1295.0226 443.70108 1290.3246 441.97308 1285.0276 440.0251C 1293.0095 437.13107 1303.6326 441.23907 1309.6536 448.89508C 1301.9926 453.3441 1286.8705 452.16608 1281.1736 446.46606M1205.9775 535.0071C 1205.4945 535.0691 1205.0105 535.1311 1204.5276 535.1941C 1201.1615 521.2991 1197.7466 507.41608 1194.5396 493.48608C 1194.3356 492.59607 1195.7405 491.3361 1196.3965 490.24908C 1197.4695 491.2021 1199.3156 492.02808 1199.4976 493.12708C 1201.7965 507.0641 1203.8566 521.0411 1205.9775 535.0071" stroke="none" fill="#221E1F" fill-rule="nonzero" />
    <path id=""  transform="matrix(1 0 0 -1 0 893)"  d="M1154.8057 450.7776C 1152.4027 450.7776 1149.9996 450.7366 1147.5977 450.78458C 1129.4807 451.1446 1111.7386 448.79758 1094.2257 444.0896C 1088.9366 442.6676 1086.6757 439.7906 1086.5156 434.68558C 1086.4586 432.8596 1086.2747 431.0116 1086.4686 429.2086C 1087.3536 420.9456 1088.5747 420.13058 1096.7317 421.6016C 1127.8817 427.22458 1158.7196 427.52557 1188.8066 415.93558C 1191.9116 414.7396 1194.9846 413.4066 1197.9177 411.84558C 1199.2336 411.14658 1200.1666 409.72858 1201.2737 408.6356C 1200.9657 408.1796 1200.6577 407.72357 1200.3496 407.26758C 1198.7556 407.84857 1197.1527 408.4076 1195.5697 409.0166C 1165.5597 420.56558 1135.1306 425.27658 1103.8186 414.4456C 1101.7937 413.74557 1100.0947 412.1056 1098.2437 410.9036C 1099.8527 409.11758 1101.1427 406.3946 1103.1306 405.71558C 1109.6936 403.47357 1116.4147 401.19458 1123.2496 400.3726C 1132.6417 399.24258 1142.1967 399.5076 1151.6707 398.9756C 1153.1947 398.8906 1154.6597 397.76758 1156.1516 397.12457C 1154.7267 396.2786 1153.3827 394.8906 1151.8667 394.66858C 1127.4337 391.0806 1103.7017 394.5446 1080.5127 402.37558C 1078.9907 402.88858 1077.2386 405.71658 1077.2897 407.41858C 1077.6857 420.5716 1078.3877 433.71957 1079.3286 446.84558C 1079.4447 448.4646 1081.2806 450.9716 1082.7437 451.3296C 1106.0526 457.0246 1129.5337 457.6626 1153.1077 452.9646C 1153.7196 452.84158 1154.2756 452.4376 1154.8586 452.1656C 1154.8407 451.70358 1154.8236 451.2406 1154.8057 450.7776" stroke="none" fill="#FFFFFF" fill-rule="nonzero" />
    <path id=""  transform="matrix(1 0 0 -1 0 893)"  d="M1227.8813 592.6819C 1227.0903 592.7569 1226.2714 592.7229 1225.5133 592.9229C 1184.1523 603.87585 1141.9434 605.0079 1099.5454 603.6419C 1096.5603 603.5459 1093.5454 601.89886 1090.6943 600.6339C 1084.9114 598.0679 1079.2463 595.2389 1073.5044 592.5819C 1071.2173 591.5249 1070.1504 590.3169 1071.2943 587.55786C 1081.9233 561.9219 1083.4424 534.8659 1083.5044 507.6089C 1083.5173 501.78387 1083.1414 495.9579 1082.9794 490.1319C 1082.9104 487.65988 1082.1294 485.44788 1079.3033 486.30188C 1078.2773 486.61288 1077.2153 489.2689 1077.3883 490.7089C 1081.3184 523.47485 1078.4224 555.5429 1067.7633 586.8189C 1066.7823 589.69586 1067.3873 591.4129 1069.5574 593.3069C 1075.3274 598.34186 1080.8484 603.6629 1086.6483 608.66187C 1088.1833 609.9859 1090.3394 611.2799 1092.2623 611.3609C 1136.2354 613.2149 1179.8394 611.11487 1222.3833 598.4709C 1223.6583 598.09186 1225.0913 597.8619 1226.1084 597.1029C 1227.2413 596.2579 1227.9834 594.8879 1228.8954 593.7449C 1228.5574 593.39087 1228.2194 593.0359 1227.8813 592.6819" stroke="none" fill="#FFFFFF" fill-rule="nonzero" />
    <path id=""  transform="matrix(1 0 0 -1 0 893)"  d="M1108.3896 490.6741C 1112.0917 516.3521 1112.6396 541.5761 1108.1616 566.8141C 1108.7637 566.8921 1109.3646 566.9691 1109.9657 567.0471C 1111.0557 562.1331 1112.8527 557.2561 1113.1096 552.2981C 1114.0917 533.3611 1114.5786 514.3971 1115.2446 495.4431C 1115.3997 491.0431 1112.8536 490.1321 1108.3896 490.6741" stroke="none" fill="#FFFFFF" fill-rule="nonzero" />
    <path id=""  transform="matrix(1 0 0 -1 0 893)"  d="M1178.2124 552.1252C 1177.8014 548.0492 1177.4304 543.9692 1176.9714 539.89716C 1175.2734 524.8522 1173.4684 509.8152 1171.8914 494.75717C 1171.5544 491.53418 1170.7144 489.73517 1167.0724 490.2592C 1163.1444 490.82217 1164.5323 493.2782 1164.9834 495.4842C 1168.3164 511.78717 1171.6204 528.09515 1174.9865 544.3902C 1175.5404 547.07416 1176.3524 549.7062 1177.0454 552.3612C 1177.4344 552.28217 1177.8234 552.20416 1178.2124 552.1252" stroke="none" fill="#FFFFFF" fill-rule="nonzero" />
    <path id=""  transform="matrix(1 0 0 -1 0 893)"  d="M1323.7559 413.4934C 1313.3839 412.1424 1299.0328 419.1774 1295.0118 427.6344C 1300.6099 425.1794 1305.9808 422.8234 1311.3508 420.4684C 1311.8119 421.2244 1312.2719 421.98242 1312.7329 422.74042C 1308.0399 426.56442 1303.3458 430.3894 1298.5299 434.3144C 1307.6859 435.39542 1316.7928 427.8794 1323.7559 413.4934" stroke="none" fill="#FFFFFF" fill-rule="nonzero" />
    <path id=""  transform="matrix(1 0 0 -1 0 893)"  d="M1208.0396 452.8176C 1213.5765 456.6226 1218.6075 460.0796 1223.6385 463.53558L1223.6385 463.53558L1222.8125 465.3666C 1216.2726 463.3346 1209.7335 461.3016 1203.1936 459.2686C 1203.0465 459.6876 1202.9005 460.1066 1202.7535 460.5246C 1212.9315 468.1356 1225.1705 470.5336 1237.6605 473.8196C 1232.8716 462.75958 1216.8835 451.2586 1208.0396 452.8176" stroke="none" fill="#FFFFFF" fill-rule="nonzero" />
    <path id=""  transform="matrix(1 0 0 -1 0 893)"  d="M1195.0303 466.5002L1176.3203 457.4822C 1184.6343 467.8702 1196.6832 471.6632 1208.3523 476.21222C 1202.7793 465.0042 1196.0582 455.1202 1183.6453 451.1252L1183.6453 451.1252L1182.5393 452.21222C 1187.0643 456.41522 1191.5903 460.61823 1196.1143 464.8222C 1195.7533 465.38123 1195.3912 465.94022 1195.0303 466.5002" stroke="none" fill="#FFFFFF" fill-rule="nonzero" />
    <path id=""  transform="matrix(1 0 0 -1 0 893)"  d="M1269.9429 440.5891C 1281.1819 438.2311 1289.9629 427.87912 1292.6099 414.0711C 1281.5858 418.6541 1272.0039 424.2571 1265.7639 434.6271C 1272.2789 429.55612 1278.7938 424.4841 1285.3079 419.4121L1285.3079 419.4121L1287.0159 421.22913C 1281.4839 427.5021 1275.9509 433.77612 1269.9429 440.5891" stroke="none" fill="#FFFFFF" fill-rule="nonzero" />
    <path id=""  transform="matrix(1 0 0 -1 0 893)"  d="M1253.8896 448.1409C 1258.9626 449.2699 1262.8727 450.1389 1266.7826 451.0089C 1266.7566 451.6149 1266.7306 452.2199 1266.7046 452.8259C 1262.9567 453.0719 1259.2096 453.3179 1255.4636 453.5679C 1258.7167 457.8979 1275.3906 458.9779 1285.2887 455.5029C 1279.6766 448.7369 1261.9867 444.1099 1253.8896 448.1409" stroke="none" fill="#FFFFFF" fill-rule="nonzero" />
    <path id=""  transform="matrix(1 0 0 -1 0 893)"  d="M1142.1079 546.8049C 1142.1079 530.0389 1142.1559 512.4339 1141.991 494.82986C 1141.981 493.74188 1140.2899 492.66788 1139.3809 491.58786C 1138.4958 492.52786 1136.7689 493.54587 1136.8489 494.39487C 1138.4989 511.90887 1140.3529 529.40485 1142.1859 546.90186C 1142.2129 547.1669 1142.4829 547.40686 1142.1079 546.8049" stroke="none" fill="#FFFFFF" fill-rule="nonzero" />
    <path id=""  transform="matrix(1 0 0 -1 0 893)"  d="M1205.7979 444.8831C 1212.1058 442.3621 1218.0918 439.9701 1224.0769 437.5781C 1224.4489 438.1551 1224.8208 438.7341 1225.1929 439.3111C 1222.4019 441.7631 1219.6108 444.21408 1216.8188 446.6651C 1226.1948 446.7371 1231.3138 440.18707 1237.0118 434.2331C 1227.9779 430.4541 1208.9889 436.78708 1205.7979 444.8831" stroke="none" fill="#FFFFFF" fill-rule="nonzero" />
    <path id=""  transform="matrix(1 0 0 -1 0 893)"  d="M1245.4663 460.05C 1240.1023 458.91998 1234.7393 457.791 1229.3754 456.66098C 1238.6783 463.494 1249.5264 464.20398 1260.4703 465.83C 1257.5383 458.72897 1239.0004 448.732 1230.5563 450.21698C 1236.3483 453.175 1241.2653 455.688 1246.1823 458.19897C 1245.9443 458.817 1245.7053 459.43298 1245.4663 460.05" stroke="none" fill="#FFFFFF" fill-rule="nonzero" />
    <path id=""  transform="matrix(1 0 0 -1 0 893)"  d="M1239.6123 446.3645C 1248.9163 447.1965 1260.6583 438.0745 1263.0433 428.6965C 1253.3763 428.2505 1238.6803 435.4715 1234.9913 443.1895C 1241.6183 439.7805 1247.5663 436.7195 1253.5143 433.65952C 1253.9062 434.2985 1254.2993 434.93552 1254.6923 435.5745C 1249.7833 439.0875 1244.8752 442.5985 1239.6123 446.3645" stroke="none" fill="#FFFFFF" fill-rule="nonzero" />
    <path id=""  transform="matrix(1 0 0 -1 0 893)"  d="M1180.935 444.2542C 1185.7991 442.1892 1189.6161 440.5682 1193.4341 438.9472C 1193.7571 439.39822 1194.081 439.8482 1194.406 440.29822C 1193.015 442.55722 1191.623 444.81622 1189.691 447.9552C 1199.557 445.7792 1203.901 438.1012 1210.2101 432.7092C 1201.9651 429.78622 1185.947 435.77322 1180.935 444.2542" stroke="none" fill="#FFFFFF" fill-rule="nonzero" />
    <path id=""  transform="matrix(1 0 0 -1 0 893)"  d="M1281.1733 446.4661C 1286.8704 452.1661 1301.9923 453.3441 1309.6533 448.89508C 1303.6323 441.2391 1293.0094 437.1311 1285.0273 440.0251C 1290.3243 441.97308 1295.0223 443.70108 1299.7203 445.43008C 1299.5824 446.1781 1299.4443 446.9261 1299.3064 447.6741C 1293.3334 447.2761 1287.3604 446.87808 1281.1733 446.4661" stroke="none" fill="#FFFFFF" fill-rule="nonzero" />
    <path id=""  transform="matrix(1 0 0 -1 0 893)"  d="M1205.9775 535.0071C 1203.8566 521.0411 1201.7965 507.0641 1199.4976 493.12708C 1199.3156 492.02808 1197.4695 491.2021 1196.3965 490.24908C 1195.7405 491.3361 1194.3356 492.59607 1194.5396 493.48608C 1197.7466 507.41608 1201.1615 521.2991 1204.5276 535.1941C 1205.0105 535.1311 1205.4945 535.0691 1205.9775 535.0071" stroke="none" fill="#FFFFFF" fill-rule="nonzero" />
    <path id=""  transform="matrix(1 0 0 -1 0 893)"  d="M253.5333 305.67538C 258.3213 304.61038 263.6413 301.95038 263.6413 296.0984C 263.6413 289.18237 250.34131 271.62738 236.50931 253.00739C 229.59329 243.43138 218.4223 228.00339 205.1213 228.00339C 192.3543 228.00339 187.0333 235.45139 187.0333 247.15538C 187.0333 270.56238 224.8053 328.5514 237.5733 350.89438C 224.8053 358.8744 213.6333 368.45038 213.6333 384.94238C 213.6333 415.7984 276.4093 430.16238 298.7533 437.0784L298.7533 437.0784L383.3413 548.7984C 290.2413 547.2014 216.2943 513.1534 200.3343 513.1534C 197.1423 513.1534 191.8213 513.68536 191.8213 518.4734C 191.8213 531.2414 222.6773 572.2054 231.1903 583.90936C 240.7653 597.20935 256.72632 601.4654 271.6213 605.7224C 317.9053 619.02136 366.8493 624.3414 414.7293 624.3414C 546.6643 624.3414 583.3723 581.7814 583.3723 515.81335C 583.3723 402.49838 445.5843 322.6984 275.3453 341.8504zM346.6333 443.9944C 366.3173 443.9944 388.1293 451.44238 388.1293 441.33438C 388.1293 430.6944 342.9093 428.0344 334.3973 422.18237L334.3973 422.18237L322.6933 404.62637C 342.3773 399.3064 360.4653 398.24237 377.4883 399.3064C 481.7603 405.1584 550.3883 481.2334 544.5363 514.75037C 538.6843 547.2014 438.6683 553.58636 414.1963 553.58636C 413.6643 539.2224 410.4733 532.3064 402.4923 521.1344z" stroke="none" fill="#F04B22" fill-rule="nonzero" />
    <path id=""  transform="matrix(1 0 0 -1 0 893)"  d="M767.6653 310.46295C 767.6653 305.14297 771.92126 301.94998 777.2413 301.94998C 786.8173 301.94998 792.6693 307.80298 824.0563 331.21097L824.0563 331.21097L833.6333 317.37897C 808.0963 291.84296 762.8773 248.75098 725.1053 248.75098C 705.9533 248.75098 697.97327 263.64697 697.97327 280.67096C 697.97327 284.92697 689.9933 284.39496 736.8093 370.57797L736.8093 370.57797L620.8343 366.85498L620.8343 366.85498L511.7743 258.32697C 499.0073 245.55896 478.79028 223.21497 459.6383 223.21497C 451.6583 223.21497 441.0183 224.81097 441.0183 234.91898C 441.0183 252.47498 481.9823 303.54697 531.9903 321.10297L531.9903 321.10297L573.4863 366.85498C 539.4383 365.78998 521.8823 363.662 521.8823 377.49396C 521.8823 387.60297 560.7173 432.28998 588.9143 441.33398C 609.6623 448.24997 638.3893 452.50598 638.3893 445.05798C 638.3893 435.48297 599.5533 440.26996 599.5533 430.69498C 599.5533 426.96997 604.3423 425.90698 607.0023 425.90698C 615.5133 426.43896 637.3263 427.50195 639.4543 427.50195L639.4543 427.50195L758.6213 526.453C 810.7573 569.54596 874.5963 617.957 898.5373 617.957C 909.7093 617.957 917.1563 604.65796 917.1563 595.081C 917.1563 583.909 905.9843 565.82196 900.6653 556.245L900.6653 556.245L834.6973 440.80197C 874.0643 440.80197 850.1253 446.12198 883.6403 438.67398C 868.2133 420.58597 855.4453 399.30698 843.7413 378.02698L843.7413 378.02698L801.1803 375.899zM848.5293 559.97L847.4653 561.03296L847.4653 561.03296L693.7173 433.886L693.7173 433.886L694.7813 432.82297L694.7813 432.82297L776.1763 438.67398z" stroke="none" fill="#F04B22" fill-rule="nonzero" />
    <path id=""  transform="matrix(1 0 0 -1 0 893)"  d="M929.5394 401.24872C 921.7704 391.45972 906.5764 375.4397 893.4544 375.4397C 883.26843 375.4397 878.6074 387.54272 878.6074 396.62073C 878.6074 418.33572 900.1884 439.51672 910.5474 439.51672C 913.4834 439.51672 918.1444 438.4497 918.1444 434.53372C 918.1444 425.63373 901.0514 409.79272 893.8004 404.6297C 892.4184 397.3327 895.0084 393.41772 902.95044 393.41772C 912.10144 393.41772 921.0794 402.8507 927.9854 408.01172zM912.9644 450.7307C 912.9644 458.02872 921.2514 464.4367 927.9854 464.4367C 931.09344 464.4367 933.6834 462.1227 933.6834 458.9187C 933.6834 451.7987 927.29443 443.0777 919.8704 443.0777C 915.7274 443.0777 912.9644 446.45972 912.9644 450.7307" stroke="none" fill="#F04B22" fill-rule="nonzero" />
    <path id=""  transform="matrix(1 0 0 -1 0 893)"  d="M1009.6519 413.3518L1011.0329 405.5208C 1001.8819 397.15482 984.09894 375.2618 971.4959 375.2618C 964.93494 375.2618 961.8269 380.95682 961.8269 387.00882C 961.8269 397.6888 971.1499 409.4368 976.6749 417.6238L976.6749 417.6238L976.3299 417.9798C 966.3159 410.3268 957.5099 401.0708 949.7409 390.7478C 947.15094 387.3658 940.76294 378.6438 936.1009 378.6438C 928.5049 378.6438 926.6059 389.8568 926.4329 395.9088C 925.9149 408.1908 936.7929 426.1668 946.8059 434.8888C 949.0499 436.8468 950.60394 437.02582 953.5399 437.02582C 963.8989 436.6688 963.0359 434.17682 963.0359 433.1098C 963.0359 426.1668 941.2809 408.1908 941.2809 403.91782C 941.2809 402.8508 942.1439 401.9598 943.17993 401.9598C 944.3889 401.9598 945.94293 403.5628 946.63293 404.45282C 960.4459 422.60782 992.2139 444.5008 997.22095 444.5008C 997.9119 444.5008 998.94794 443.61182 999.9829 441.1198C 1001.0189 438.4498 1002.05493 435.24582 1002.57294 431.5068C 1002.57294 424.5658 981.3369 411.03882 981.3369 398.7568C 981.3369 397.15482 982.7179 395.5528 984.44495 395.5528C 988.5889 395.5528 996.18494 401.7828 999.2929 404.45282z" stroke="none" fill="#F04B22" fill-rule="nonzero" />
    <path id=""  transform="matrix(1 0 0 -1 0 893)"  d="M901.125 345.9612C 893.01 329.05222 891.629 322.46622 872.637 323.71222C 866.76697 315.88123 856.926 301.28522 856.926 290.6062C 856.926 286.69022 858.134 284.3752 862.105 284.3752C 867.63 284.3752 873.846 289.7152 891.802 302.8872L891.802 302.8872L892.665 295.0552C 882.479 285.4432 863.83203 266.3982 849.156 266.3982C 842.423 266.3982 838.279 271.20322 838.279 278.32422C 838.279 284.1972 840.524 290.9612 842.768 296.1232L842.768 296.1232L842.423 296.47922L842.423 296.47922L833.618 289.18222L833.618 289.18222L831.718 295.94522C 842.078 304.1332 851.574 313.2112 857.962 324.42422C 847.43 324.42422 850.71 325.1362 841.56 323.71222L841.56 323.71222L843.459 326.9162C 852.782 342.57922 854.164 345.42822 872.637 346.13922C 877.817 353.4382 881.615 361.80322 891.629 361.80322C 893.874 361.80322 897.154 361.26923 897.154 358.4212C 897.154 355.21722 892.147 349.3442 890.42 346.8522z" stroke="none" fill="#F04B22" fill-rule="nonzero" />
    <path id=""  transform="matrix(1 0 0 -1 0 893)"  d="M944.2894 294.8776C 936.5204 285.0886 921.3264 269.0686 908.2044 269.0686C 898.01843 269.0686 893.35645 281.1716 893.35645 290.24957C 893.35645 311.9646 914.9384 333.1456 925.2974 333.1456C 928.2324 333.1456 932.8944 332.07858 932.8944 328.1626C 932.8944 319.2616 915.8014 303.4216 908.5504 298.25858C 907.16943 290.96158 909.7584 287.0456 917.70044 287.0456C 926.85144 287.0456 935.8294 296.47858 942.7354 301.6406zM927.7144 344.3596C 927.7144 351.6576 936.00244 358.06458 942.7354 358.06458C 945.84344 358.06458 948.4334 355.7516 948.4334 352.54758C 948.4334 345.42758 942.0454 336.7056 934.6204 336.7056C 930.4774 336.7056 927.7144 340.0886 927.7144 344.3596" stroke="none" fill="#F04B22" fill-rule="nonzero" />
    <path id=""  transform="matrix(1 0 0 -1 0 893)"  d="M1007.65515 302.3525L1009.38214 295.5895C 998.8491 284.7315 980.0311 268.5335 966.21814 269.24652C 954.65015 269.7795 941.87415 276.54352 938.7661 289.5375C 937.7301 288.4695 936.5221 287.2225 934.96814 287.2225C 933.2421 287.2225 932.03314 289.00452 932.03314 290.6055C 932.03314 292.9195 934.7951 295.4115 936.1771 296.8355L936.1771 296.8355L973.64215 332.2565C 973.9881 338.12952 977.2681 343.8255 983.48413 343.8255C 988.66315 343.8255 989.6991 342.2225 990.2171 337.2395C 990.90814 330.47552 993.49713 324.4245 993.49713 316.5925C 993.49713 301.99652 982.1021 291.13852 971.0531 284.1975C 982.1021 282.2395 988.8361 287.5795 997.29614 294.1655zM948.9531 298.6155C 955.3411 298.25952 959.14014 292.74152 962.4201 288.1135C 972.7791 294.69952 975.54114 297.72452 976.05914 308.0495C 975.54114 311.7875 974.85114 316.5925 973.8151 322.6445z" stroke="none" fill="#F04B22" fill-rule="nonzero" />
    <path id=""  transform="matrix(1 0 0 -1 0 893)"  d="M1073.6102 302.3525L1075.3362 295.5895C 1064.8052 284.7315 1045.9862 268.5335 1032.1732 269.24652C 1020.6052 269.7795 1007.8292 276.54352 1004.7212 289.5375C 1003.6852 288.4695 1002.4772 287.2225 1000.9232 287.2225C 999.1972 287.2225 997.9882 289.00452 997.9882 290.6055C 997.9882 292.9195 1000.7502 295.4115 1002.1322 296.8355L1002.1322 296.8355L1039.5972 332.2565C 1039.9432 338.12952 1043.2231 343.8255 1049.4392 343.8255C 1054.6182 343.8255 1055.6542 342.2225 1056.1722 337.2395C 1056.8632 330.47552 1059.4521 324.4245 1059.4521 316.5925C 1059.4521 301.99652 1048.0573 291.13852 1037.0072 284.1975C 1048.0573 282.2395 1054.7902 287.5795 1063.2502 294.1655zM1014.9082 298.6155C 1021.2962 298.25952 1025.0952 292.74152 1028.3752 288.1135C 1038.7343 294.69952 1041.4962 297.72452 1042.0142 308.0495C 1041.4962 311.7875 1040.8062 316.5925 1039.7703 322.6445z" stroke="none" fill="#F04B22" fill-rule="nonzero" />
    <path id=""  transform="matrix(1 0 0 -1 0 893)"  d="M1143.5365 298.25928C 1133.0044 285.62128 1114.0125 268.8903 1096.9194 268.8903C 1084.3154 268.8903 1078.4454 280.4593 1078.1014 292.20728C 1077.4094 315.5243 1102.4445 339.3753 1124.8904 339.1973C 1130.4144 339.1973 1137.3204 337.7733 1137.3204 330.6543C 1137.3204 321.93228 1128.8605 308.7613 1095.7114 297.5473L1095.7114 297.5473L1095.3655 293.6313C 1094.8484 286.86728 1100.5454 284.55328 1106.0704 284.55328C 1118.3285 284.55328 1132.8314 297.5473 1141.9814 305.02228zM1122.1274 326.9163C 1122.1274 328.1623 1121.2644 329.2303 1120.0554 328.8743C 1111.4225 326.56128 1101.4084 318.0163 1096.7474 306.2693C 1111.9404 311.60828 1122.3004 323.8913 1122.1274 326.9163" stroke="none" fill="#F04B22" fill-rule="nonzero" />
    <path id=""  transform="matrix(1 0 0 -1 0 893)"  d="M1157.1772 310.3625C 1151.1343 300.57248 1143.8822 295.9455 1136.4583 288.2915L1136.4583 288.2915L1135.7682 296.12347C 1140.2572 299.86148 1143.8822 304.3105 1147.1632 309.1175C 1143.5372 309.47247 1142.5012 310.89648 1142.5012 314.6345C 1142.5012 327.4495 1160.1123 340.2655 1164.2552 340.2655C 1165.9823 340.2655 1167.3643 338.8415 1167.3643 337.2395C 1167.3643 335.45947 1166.8452 333.85748 1166.1553 332.2565C 1182.3843 334.5705 1191.8802 336.70547 1193.6073 334.5705C 1196.1973 331.1875 1197.4053 328.34048 1197.7502 325.1355C 1197.7502 319.6185 1194.4702 316.9485 1190.4993 313.5665C 1185.4912 309.1175 1177.0312 300.3945 1177.0312 293.27548C 1177.0312 290.4275 1179.7942 288.2915 1182.3843 288.2915C 1189.8082 288.2915 1200.6863 299.86148 1206.3833 304.3105L1206.3833 304.3105L1207.5913 297.7245C 1201.0312 290.07147 1181.1763 270.31448 1171.3342 270.31448C 1164.0833 270.31448 1159.5942 277.2565 1159.5942 284.0195C 1159.5942 296.12347 1168.5723 305.5565 1175.4783 314.0995L1175.4783 314.0995L1175.1333 314.45648z" stroke="none" fill="#F04B22" fill-rule="nonzero" />
    <path id=""  transform="matrix(1 0 0 -1 0 893)"  d="M1257.8352 294.8776C 1250.0663 285.0886 1234.8723 269.0686 1221.7502 269.0686C 1211.5642 269.0686 1206.9032 281.1716 1206.9032 290.24957C 1206.9032 311.9646 1228.4843 333.1456 1238.8433 333.1456C 1241.7793 333.1456 1246.4403 332.07858 1246.4403 328.1626C 1246.4403 319.2616 1229.3473 303.4216 1222.0963 298.25858C 1220.7142 290.96158 1223.3042 287.0456 1231.2462 287.0456C 1240.3972 287.0456 1249.3752 296.47858 1256.2812 301.6406zM1241.2603 344.3596C 1241.2603 351.6576 1249.5472 358.06458 1256.2812 358.06458C 1259.3893 358.06458 1261.9792 355.7516 1261.9792 352.54758C 1261.9792 345.42758 1255.5902 336.7056 1248.1663 336.7056C 1244.0232 336.7056 1241.2603 340.0886 1241.2603 344.3596" stroke="none" fill="#F04B22" fill-rule="nonzero" />
    <path id=""  transform="matrix(1 0 0 -1 0 893)"  d="M1325.1722 298.25928C 1314.6401 285.62128 1295.6482 268.8903 1278.5552 268.8903C 1265.9512 268.8903 1260.0812 280.4593 1259.7372 292.20728C 1259.0452 315.5243 1284.0802 339.3753 1306.5261 339.1973C 1312.0502 339.1973 1318.9562 337.7733 1318.9562 330.6543C 1318.9562 321.93228 1310.4962 308.7613 1277.3472 297.5473L1277.3472 297.5473L1277.0012 293.6313C 1276.4841 286.86728 1282.1812 284.55328 1287.7062 284.55328C 1299.9642 284.55328 1314.4672 297.5473 1323.6172 305.02228zM1303.7632 326.9163C 1303.7632 328.1623 1302.9001 329.2303 1301.6912 328.8743C 1293.0582 326.56128 1283.0442 318.0163 1278.3832 306.2693C 1293.5762 311.60828 1303.9362 323.8913 1303.7632 326.9163" stroke="none" fill="#F04B22" fill-rule="nonzero" />
		</g>
	</g>
</g>
</svg>